:SAMPLES-PER-SECOND 30
:FULLY-SPECIFIED
:DEGREES
442
root  -15.3392 34.745 -8.15554 -170.289 0.0184479 179.78
RightUpLeg  -9.57523 -9.97003 1.83302
RightLeg  5.6523 2.17935 0.0752022
RightFoot  4.17768 0.00320674 0.279039
RightToes  -24.0012 -0.10987 -0.214334
Spine  -2.02886 0.208649 -0.40315
Spine1  -4.13443 0.50408 -0.162018
HEad  -66.8689 0.337115 5.99923
LeftShoulder1  -1.94126e-019 -3.10601e-018 -2.51263e-017
LeftArm  -9.64064 24.4992 -81.9167
LeftForeArm  31.2334 -17.862 -2.91291
LeftHand  -0.500821 -2.67802 7.39398
RightShoulder  -4.96962e-017 0 -2.36833e-017
RightArm  -20.6619 -22.95 79.5924
RightForeArm  54.4342 14.9877 1.15595
RightHand  -0.497719 -0.573971 -12.1027
LeftUpLeg  -9.5334 -5.70334 -0.839729
LeftLeg  6.61825 12.9832 0.662855
LeftFoot  3.25152 -0.0247464 0.900929
LeftToes  -15.1255 1.31424e-006 1.14295e-007
443
root  -15.3384 34.7448 -8.16245 -170.289 0.0630341 179.782
RightUpLeg  -9.56818 -9.90484 1.82737
RightLeg  5.66632 2.14811 0.0799972
RightFoot  4.12675 0.00325175 0.278396
RightToes  -23.8933 -0.10987 -0.214334
Spine  -2.05681 0.191772 -0.40526
Spine1  -4.19073 0.470742 -0.16494
HEad  -66.8303 0.438768 5.88649
LeftShoulder1  -1.94126e-019 -3.10601e-018 -2.51263e-017
LeftArm  -9.76987 24.5119 -81.9327
LeftForeArm  31.2685 -17.7713 -2.89888
LeftHand  -0.501061 -2.70929 7.40717
RightShoulder  -4.96962e-017 0 -2.36833e-017
RightArm  -20.7575 -22.9653 79.5945
RightForeArm  54.4372 14.9749 1.15974
RightHand  -0.496501 -0.607078 -12.1327
LeftUpLeg  -9.51176 -5.67651 -0.844163
LeftLeg  6.61749 12.9936 0.65833
LeftFoot  3.23053 -0.0244756 0.896721
LeftToes  -15.1791 1.31424e-006 1.14295e-007
444
root  -15.3383 34.7447 -8.16884 -170.29 0.111023 179.784
RightUpLeg  -9.5516 -9.88126 1.82625
RightLeg  5.64301 2.17639 0.0760741
RightFoot  4.16794 0.00330666 0.277612
RightToes  -23.985 -0.10987 -0.214334
Spine  -2.07493 0.184322 -0.409656
Spine1  -4.22683 0.45547 -0.172556
HEad  -66.7491 0.543864 5.74883
LeftShoulder1  -1.94126e-019 -3.10601e-018 -2.51263e-017
LeftArm  -9.83575 24.4847 -81.9531
LeftForeArm  31.2751 -17.6645 -2.88475
LeftHand  -0.500813 -2.71369 7.42505
RightShoulder  -4.96962e-017 0 -2.36833e-017
RightArm  -20.7667 -22.9721 79.5975
RightForeArm  54.3634 14.9636 1.16248
RightHand  -0.496715 -0.629372 -12.1245
LeftUpLeg  -9.48202 -5.6383 -0.847723
LeftLeg  6.5904 13.0138 0.652864
LeftFoot  3.23657 -0.0242952 0.893916
LeftToes  -15.1722 1.31424e-006 1.14295e-007
445
root  -15.3398 34.7448 -8.17522 -170.293 0.139206 179.785
RightUpLeg  -9.52646 -9.87086 1.8245
RightLeg  5.60732 2.18316 0.0744007
RightFoot  4.18148 0.00337294 0.276665
RightToes  -24.0127 -0.10987 -0.214334
Spine  -2.08982 0.188794 -0.413593
Spine1  -4.25611 0.463401 -0.18058
HEad  -66.8075 0.587798 5.66925
LeftShoulder1  -1.94126e-019 -3.10601e-018 -2.51263e-017
LeftArm  -9.79448 24.4398 -81.9783
LeftForeArm  31.3405 -17.6183 -2.88129
LeftHand  -0.501387 -2.67032 7.37215
RightShoulder  -4.96962e-017 0 -2.36833e-017
RightArm  -20.6986 -22.9749 79.5669
RightForeArm  54.4547 14.9129 1.16756
RightHand  -0.496678 -0.546478 -12.1364
LeftUpLeg  -9.45289 -5.62796 -0.850977
LeftLeg  6.56111 13.0315 0.648859
LeftFoot  3.23488 -0.0241442 0.89157
LeftToes  -15.162 1.31424e-006 1.14295e-007
446
root  -15.3422 34.7448 -8.18017 -170.298 0.163055 179.787
RightUpLeg  -9.5154 -9.83505 1.81843
RightLeg  5.60623 2.16628 0.0737921
RightFoot  4.19258 0.00345205 0.275535
RightToes  -24.0801 -0.10987 -0.214334
Spine  -2.10061 0.200566 -0.416448
Spine1  -4.27764 0.486701 -0.185552
HEad  -66.8826 0.572899 5.65086
LeftShoulder1  -1.94126e-019 -3.10601e-018 -2.51263e-017
LeftArm  -9.75758 24.4074 -82.0087
LeftForeArm  31.3628 -17.656 -2.88651
LeftHand  -0.500474 -2.69401 7.42691
RightShoulder  -4.96962e-017 0 -2.36833e-017
RightArm  -20.6232 -22.9681 79.529
RightForeArm  54.5738 14.8838 1.16722
RightHand  -0.499178 -0.533404 -12.0692
LeftUpLeg  -9.43635 -5.61408 -0.856114
LeftLeg  6.5586 13.036 0.648512
LeftFoot  3.22166 -0.0240241 0.889703
LeftToes  -15.1463 1.31424e-006 1.14295e-007
447
root  -15.3434 34.7449 -8.18381 -170.306 0.173386 179.788
RightUpLeg  -9.51235 -9.77371 1.81067
RightLeg  5.633 2.11084 0.0729181
RightFoot  4.1171 0.00354543 0.2742
RightToes  -23.8194 -0.10987 -0.214334
Spine  -2.10476 0.211499 -0.418083
Spine1  -4.28629 0.508979 -0.187453
HEad  -66.9376 0.553587 5.64894
LeftShoulder1  -1.94126e-019 -3.10601e-018 -2.51263e-017
LeftArm  -9.75668 24.3832 -82.04
LeftForeArm  31.3699 -17.763 -2.899
LeftHand  -0.501037 -2.67959 7.38526
RightShoulder  -4.96962e-017 0 -2.36833e-017
RightArm  -20.6112 -22.9521 79.4985
RightForeArm  54.571 14.8887 1.16316
RightHand  -0.498555 -0.543701 -12.0864
LeftUpLeg  -9.43357 -5.65225 -0.857313
LeftLeg  6.58492 13.0858 0.656919
LeftFoot  3.19396 -0.0239362 0.888337
LeftToes  -15.0946 1.31424e-006 1.14295e-007
448
root  -15.3457 34.745 -8.18572 -170.315 0.188309 179.789
RightUpLeg  -9.51402 -9.72595 1.80402
RightLeg  5.6551 2.0963 0.0732341
RightFoot  4.14949 0.00365454 0.272641
RightToes  -23.9309 -0.10987 -0.214334
Spine  -2.10576 0.223647 -0.419511
Spine1  -4.28855 0.533662 -0.189854
HEad  -67.0157 0.550091 5.65303
LeftShoulder1  -1.94126e-019 -3.10601e-018 -2.51263e-017
LeftArm  -9.75376 24.3777 -82.0608
LeftForeArm  31.335 -17.8718 -2.91297
LeftHand  -0.50054 -2.69259 7.40827
RightShoulder  -4.96962e-017 0 -2.36833e-017
RightArm  -20.6425 -22.9323 79.4817
RightForeArm  54.5243 14.8884 1.16237
RightHand  -0.496928 -0.619062 -12.1238
LeftUpLeg  -9.43065 -5.65571 -0.861081
LeftLeg  6.61111 13.1005 0.66359
LeftFoot  3.16404 -0.0238819 0.887493
LeftToes  -15.0669 1.31424e-006 1.14295e-007
449
root  -15.3477 34.745 -8.18931 -170.326 0.183136 179.789
RightUpLeg  -9.5036 -9.67256 1.79664
RightLeg  5.67198 2.03655 0.0717767
RightFoot  4.13567 0.00383857 0.270012
RightToes  -23.9179 -0.10987 -0.214334
Spine  -2.10946 0.23476 -0.420718
Spine1  -4.29568 0.5558 -0.192382
HEad  -66.9326 0.4922 5.68976
LeftShoulder1  -1.94126e-019 -3.10601e-018 -2.51263e-017
LeftArm  -9.69991 24.3834 -82.0816
LeftForeArm  31.2475 -18.0127 -2.93334
LeftHand  -0.500644 -2.71941 7.40785
RightShoulder  -4.96962e-017 0 -2.36833e-017
RightArm  -20.6558 -22.9175 79.4698
RightForeArm  54.5173 14.8853 1.16389
RightHand  -0.496685 -0.556603 -12.1397
LeftUpLeg  -9.4139 -5.64347 -0.86681
LeftLeg  6.60867 13.0877 0.662401
LeftFoot  3.17003 -0.0239264 0.888184
LeftToes  -15.1362 1.31424e-006 1.14295e-007
450
root  -15.3495 34.745 -8.19155 -170.336 0.178436 179.789
RightUpLeg  -9.49767 -9.67034 1.79012
RightLeg  5.68953 2.02344 0.0719428
RightFoot  4.13406 0.00401283 0.267522
RightToes  -23.9163 -0.10987 -0.214334
Spine  -2.11318 0.247034 -0.421689
Spine1  -4.30515 0.580585 -0.194296
HEad  -66.796 0.42849 5.74026
LeftShoulder1  -1.94126e-019 -3.10601e-018 -2.51263e-017
LeftArm  -9.60725 24.3905 -82.0973
LeftForeArm  31.2523 -18.0816 -2.94237
LeftHand  -0.50024 -2.71338 7.41142
RightShoulder  -4.96962e-017 0 -2.36833e-017
RightArm  -20.6307 -22.898 79.4686
RightForeArm  54.5865 14.879 1.16753
RightHand  -0.49872 -0.543311 -12.0864
LeftUpLeg  -9.39759 -5.66367 -0.871001
LeftLeg  6.60573 13.0975 0.662223
LeftFoot  3.16716 -0.0238886 0.887598
LeftToes  -15.0929 1.31424e-006 1.14295e-007
451
root  -15.3501 34.7448 -8.19389 -170.34 0.157196 179.788
RightUpLeg  -9.49752 -9.65495 1.78565
RightLeg  5.70511 1.99127 0.072042
RightFoot  4.13062 0.00410482 0.266208
RightToes  -23.968 -0.10987 -0.214334
Spine  -2.11492 0.250967 -0.422409
Spine1  -4.30674 0.588831 -0.195662
HEad  -66.7733 0.369644 5.78849
LeftShoulder1  -1.94126e-019 -3.10601e-018 -2.51263e-017
LeftArm  -9.60535 24.3905 -82.1038
LeftForeArm  31.2638 -18.0865 -2.9413
LeftHand  -0.501788 -2.74278 7.33832
RightShoulder  -4.96962e-017 0 -2.36833e-017
RightArm  -20.6323 -22.8942 79.4885
RightForeArm  54.5954 14.9196 1.16272
RightHand  -0.497915 -0.531757 -12.1122
LeftUpLeg  -9.38959 -5.62404 -0.875132
LeftLeg  6.59578 13.0356 0.656897
LeftFoot  3.16116 -0.0238322 0.88672
LeftToes  -15.0968 1.31424e-006 1.14295e-007
452
root  -15.3502 34.7444 -8.19524 -170.34 0.142166 179.785
RightUpLeg  -9.49973 -9.66315 1.78572
RightLeg  5.7248 1.98101 0.071679
RightFoot  4.11422 0.00418532 0.265058
RightToes  -24.004 -0.10987 -0.214334
Spine  -2.11067 0.254548 -0.422864
Spine1  -4.29867 0.594954 -0.196973
HEad  -66.7836 0.317372 5.82804
LeftShoulder1  -1.94126e-019 -3.10601e-018 -2.51263e-017
LeftArm  -9.62657 24.3949 -82.1186
LeftForeArm  31.194 -18.0399 -2.93362
LeftHand  -0.498549 -2.66276 7.4349
RightShoulder  -4.96962e-017 0 -2.36833e-017
RightArm  -20.6451 -22.8857 79.522
RightForeArm  54.5099 14.98 1.15769
RightHand  -0.498386 -0.545403 -12.0994
LeftUpLeg  -9.38966 -5.62051 -0.87796
LeftLeg  6.59844 13.015 0.656474
LeftFoot  3.15977 -0.0237507 0.885454
LeftToes  -15.164 1.31424e-006 1.14295e-007
